HIERARCHY
ROOT Hips
{
  OFFSET -35.2597 29.1586 114.425
  CHANNELS 6 Xposition Yposition Zposition Zrotation Xrotation Yrotation
  JOINT LeftUpLeg
  {
    OFFSET 8.64259 1.95398 -2.38835
    CHANNELS 3 Zrotation Xrotation Yrotation
    JOINT LeftLeg
    {
      OFFSET 43.7702 0 0
      CHANNELS 3 Zrotation Xrotation Yrotation
      JOINT LeftFoot
      {
        OFFSET 40.6238 0 0
        CHANNELS 3 Zrotation Xrotation Yrotation
        JOINT LeftToeBase
        {
          OFFSET 12.7242 0 0
          CHANNELS 3 Zrotation Xrotation Yrotation
          End Site
          {
            OFFSET 0 0 0
          }
        }
      }
    }
  }
  JOINT RightUpLeg
  {
    OFFSET -8.2249 1.95398 -2.59336
    CHANNELS 3 Zrotation Xrotation Yrotation
    JOINT RightLeg
    {
      OFFSET 43.5653 0 0
      CHANNELS 3 Zrotation Xrotation Yrotation
      JOINT RightFoot
      {
        OFFSET 40.6238 0 0
        CHANNELS 3 Zrotation Xrotation Yrotation
        JOINT RightToeBase
        {
          OFFSET 12.7242 0 0
          CHANNELS 3 Zrotation Xrotation Yrotation
          End Site
          {
            OFFSET 0 0 0
          }
        }
      }
    }
  }
  JOINT Spine
  {
    OFFSET 0.165834 0.87714 6.61349
    CHANNELS 3 Zrotation Xrotation Yrotation
    JOINT Spine1
    {
      OFFSET 7.38963 1.71661e-005 0
      CHANNELS 3 Zrotation Xrotation Yrotation
      JOINT Spine2
      {
        OFFSET 11.9445 1.14441e-005 0
        CHANNELS 3 Zrotation Xrotation Yrotation
        JOINT Spine3
        {
          OFFSET 14.7254 4.19617e-005 0
          CHANNELS 3 Zrotation Xrotation Yrotation
          JOINT Spine4
          {
            OFFSET 10.9679 0 0
            CHANNELS 3 Zrotation Xrotation Yrotation
            JOINT RightShoulder
            {
              OFFSET 2.46616 -1.6653 3.69651
              CHANNELS 3 Zrotation Xrotation Yrotation
              JOINT RightArm
              {
                OFFSET 13.0012 0 0
                CHANNELS 3 Zrotation Xrotation Yrotation
                JOINT RightForeArm
                {
                  OFFSET 28.7848 1.62311e-005 0
                  CHANNELS 3 Zrotation Xrotation Yrotation
                  JOINT RightHand
                  {
                    OFFSET 26.5688 1.62095e-005 0
                    CHANNELS 3 Zrotation Xrotation Yrotation
                    End Site
                    {
                      OFFSET 0 0 0
                    }
                  }
                }
              }
            }
            JOINT LeftShoulder
            {
              OFFSET 2.38034 -1.29275 -3.7523
              CHANNELS 3 Zrotation Xrotation Yrotation
              JOINT LeftArm
              {
                OFFSET 16.3182 6.07031e-005 0
                CHANNELS 3 Zrotation Xrotation Yrotation
                JOINT LeftForeArm
                {
                  OFFSET 27.0901 0 0
                  CHANNELS 3 Zrotation Xrotation Yrotation
                  JOINT LeftHand
                  {
                    OFFSET 24.5451 1.51738e-005 0
                    CHANNELS 3 Zrotation Xrotation Yrotation
                    End Site
                    {
                      OFFSET 0 0 0
                    }
                  }
                }
              }
            }
            JOINT Neck
            {
              OFFSET 5.0226 -0.0266342 0
              CHANNELS 3 Zrotation Xrotation Yrotation
              JOINT Head
              {
                OFFSET 6.69364 2.86102e-005 0
                CHANNELS 3 Zrotation Xrotation Yrotation
                End Site
                {
                  OFFSET 0 0 0
                }
              }
            }
          }
        }
      }
    }
  }
}
MOTION
Frames:	17
Frame Time:	0.0416667
246.243 95.5307 226.508 -90.0541 44.3617 -88.3792 -175.435 28.3774 83.331 -21.0115 10.4108 -3.77152 63.6269 1.89855 -0.846662 18.0752 -4.23485 -2.10475 165.252 -24.1458 86.0109 -76.0737 -14.5331 -0.40178 58.1966 1.38786 -1.75657 113.1 -24.1125 18.4806 2.90614 7.42806 -89.5828 12.0279 5.97476 0.180377 0.370714 5.97688 -0.0837244 -22.2661 5.64342 1.97347 -2.25344 5.64341 1.97346 90.7527 -21.0957 -108.984 25.8512 16.1684 33.6877 -88.9344 -10.4158 -91.7271 -41.1553 9.87338 -31.4902 -81.8939 -48.78 90.8421 -33.7093 15.5559 -90.0933 177.166 57.1346 -178.298 45.1796 -27.707 -62.7016 11.632 -11.1606 -6.845 -6.58447 -9.162 -2.35227 
231.726 93.2305 210.931 -92.4001 38.4613 -91.9342 -171.514 23.2611 77.9498 -42.2897 16.0513 -6.86735 77.0326 12.5483 5.97766 3.07239 -15.7004 1.52169 157.66 -5.96155 86.7727 -110.051 -7.07043 -2.73135 57.3368 -0.502876 -4.86046 65.1941 -14.1901 4.89713 1.26256 7.87547 -88.8269 11.095 3.05774 2.03774 -0.573815 3.14444 1.90114 -23.1122 2.30421 2.86231 -3.09956 2.30418 2.8623 92.2409 -30.9894 -101.899 48.256 -4.54874 26.0409 -27.9868 -21.0162 -54.649 -61.8599 10.9229 -22.8469 -88.332 -61.0076 83.0654 -30.0741 5.96448 -86.6548 13.9164 79.6175 -15.0651 32.4492 -26.3485 -77.768 11.8636 -9.02235 -12.9852 -4.41298 -5.69198 0.963571 
218.798 91.2194 197.992 -92.1052 32.8975 -96.0694 -175.314 6.57511 73.2831 -43.2965 16.3482 -3.90478 90.204 23.4133 3.79756 11.6611 -11.1159 2.83953 166.576 24.8935 76.0878 -129.704 -13.4633 -4.34921 55.3759 0.295515 -6.22379 12.0521 4.27175 6.28272 -1.03021 7.73004 -88.1896 11.4078 -1.20509 3.72699 -0.268273 -1.04007 3.77631 -22.7734 -2.26877 3.19353 -2.76073 -2.26878 3.19351 93.9628 -31.3119 -98.4981 48.7507 12.0237 13.6841 1.48655 -72.7315 2.77533 -79.3812 16.9447 -26.0447 -89.0187 -58.6781 81.774 -25.0831 -2.99417 -90.0376 3.95434 51.0682 -5.38298 30.8139 -21.8218 -69.5271 15.1448 -3.30744 -12.9485 -10.1761 0.261134 0.427061 
203.892 92.6746 182.561 -90.9692 36.3621 -90.2254 -171.223 -9.52438 92.1788 -26.0765 16.9285 -2.4467 85.9416 20.7532 2.36757 27.672 -2.79207 4.06939 176.652 42.1859 90.5244 -117.295 -7.81072 -4.02272 67.9084 -6.6373 -8.26441 12.8063 3.18538 8.4082 -2.38057 7.49377 -89.2995 11.9418 -4.40218 1.88562 0.276903 -4.31491 2.0778 -22.319 -4.76502 0.472614 -2.30637 -4.765 0.472613 96.2781 -24.7052 -95.14 33.7516 15.8296 29.5954 -173.358 -78.5905 -172.041 -91.3008 17.3208 -22.3973 -87.7048 -43.8314 81.0096 -20.7794 -11.1737 -96.2386 -179.469 10.9595 -179.268 18.9795 -16.811 -79.4497 17.4986 5.99018 -10.2207 -13.7107 8.45728 3.4294 
186.726 96.9365 166.405 -91.6226 37.1178 -82.8701 -168.385 -27.565 96.7613 -8.80667 21.4762 1.80362 53.355 -2.8909 1.02908 27.5482 0.175844 -1.58871 178.437 43.91 96.6797 -81.2442 3.45633 -2.74499 72.2076 -6.89021 -4.87539 13.8314 2.88832 8.22474 -3.8573 7.63178 -90.5668 11.6239 -7.93846 -0.305952 -0.0226684 -7.94417 0.0459764 -22.7369 -7.4774 -2.69108 -2.72425 -7.47739 -2.69109 97.9313 -13.4527 -93.9359 26.87 16.6854 34.0521 -137.676 -87.1399 -136.59 -83.2941 33 -42.3351 -84.2437 -25.0501 83.3909 -18.2046 -16.4451 -86.1662 179.811 2.12045 179.987 10.2832 -9.98255 -80.4325 23.3296 13.7019 -11.3656 -23.549 14.9596 11.6026 
169.961 97.6322 150.178 -88.3511 37.8768 -81.9543 -166.546 -29.4148 100.052 -19.7305 9.25986 3.13696 58.6858 -0.435169 2.38529 14.999 -9.88446 3.91091 -178.624 37.8897 96.1708 -36.7939 -10.6485 -1.36915 67.2899 -5.40936 -3.35837 17.9872 1.69628 7.40847 -4.13489 7.6458 -91.4018 11.526 -8.881 -1.88291 -0.115197 -8.95521 -1.48719 -22.8431 -7.90254 -4.47952 -2.8305 -7.90254 -4.47953 98.5157 -8.61197 -93.5575 14.8962 17.1183 40.2745 -9.20453 -70.0657 -8.63828 -14.2091 4.39788 -52.4085 -83.0744 -7.47514 81.7969 -19.4731 -14.1238 -75.9342 177.73 25.3227 -176.438 0.625573 -2.00818 -71.8945 24.6371 15.0577 -16.0242 -24.8342 16.3331 19.2429 
153.972 96.1839 133.938 -93.2949 39.0883 -82.4579 -164.174 -30.1198 99.1618 -44.538 1.18495 0.731516 59.8097 -0.775976 4.21074 20.2008 -4.83456 0.873041 -178.81 23.1541 93.8058 -7.02202 -19.0108 -0.98167 59.73 -2.25536 -1.67085 21.8385 1.541 3.97409 -3.95397 7.61657 -90.9674 11.6292 -8.31839 -1.0648 -0.0150378 -8.35712 -0.6951 -22.7349 -7.61177 -3.52946 -2.72224 -7.61175 -3.52946 97.8804 -11.4945 -94.9367 25.2885 17.2232 45.7384 -11.1893 -74.8913 -10.5044 -60.8758 14.902 -29.3587 -82.5216 -11.4116 83.4377 -20.7438 -6.70569 -48.4438 156.526 12.8615 -127.35 -14.6815 8.15694 -70.4452 19.5456 16.835 -8.02807 -20.9366 16.8145 12.3136 
139.815 93.3112 118.819 -98.385 42.5086 -80.081 -159.58 -16.841 100.253 -81.683 9.92446 1.05725 59.3284 -0.399538 5.75778 15.1988 -5.27626 -2.82855 178.773 27.2825 95.4657 -35.8777 -20.2945 -0.644598 62.471 -1.62971 -2.99814 15.4023 3.25818 5.93316 -3.0029 7.58826 -90.8992 11.6709 -6.3942 -1.11238 0.0152669 -6.43688 -0.82875 -22.6224 -5.76366 -2.9885 -2.6098 -5.76367 -2.9885 94.7905 -25.0347 -98.3519 30.4664 16.4677 35.2336 -6.0333 -51.124 -5.91714 -56.0476 16.0397 -35.1634 -85.6785 -34.5096 82.6841 -17.6582 -6.46313 -5.77921 158.076 -8.19523 -72.3792 -21.145 9.78093 -72.0206 10.3533 16.7302 2.94876 -11.1385 15.1603 7.2818 
127.059 91.5865 105.986 -101.755 47.3701 -67.4299 -158.659 9.8136 106.315 -111.923 10.9033 4.16782 58.0945 -0.442121 7.26492 9.68947 -6.42697 -5.29408 177.41 20.4959 105.741 -48.603 -23.844 2.20824 72.6961 -10.0449 -7.39762 22.9345 0.568507 5.50507 -1.4591 8.30705 -92.2283 10.1733 -3.92352 -4.09301 -1.49762 -4.09974 -3.91651 -24.0041 -2.51382 -5.08112 -3.99145 -2.51383 -5.08112 92.4545 -35.856 -100.187 33.8458 11.9752 -0.648074 -5.00593 -37.4221 -5.28679 -54.0385 16.7823 -37.8178 -86.6972 -56.3349 84.6317 -21.1748 -31.295 47.155 95.9012 -35.9345 -89.4313 46.291 -15.6696 -38.0405 16.4786 15.8228 7.48989 -11.0819 12.9664 4.32709 
113.822 92.4765 93.321 -100.513 48.0336 -71.2878 -168.117 32.4716 95.7996 -116.632 10.5675 4.74358 63.7371 3.93502 9.18316 6.6673 -9.29712 -3.61892 177.732 5.57603 102.1 -47.5008 -24.0343 0.346082 80.1924 -15.2662 -4.55648 27.683 -0.580947 3.51154 -0.302023 7.9879 -91.7153 10.8778 -1.39514 -3.2933 -0.797016 -1.53863 -3.22883 -23.2958 -0.341809 -3.55996 -3.28317 -0.341831 -3.55995 90.5089 -35.7646 -103.757 32.088 7.44493 -13.0543 -22.3433 -29.4434 -37.5647 -55.0729 12.8433 -29.9071 -84.4583 -56.0825 87.7498 -24.5162 -8.3413 67.68 58.8792 -17.3153 -102.103 73.0319 -14.8319 -23.206 12.6889 9.12025 5.11751 -8.72054 7.42229 3.1194 
98.7871 96.01 79.1614 -104.199 52.7965 -72.736 -169.668 38.7989 90.9086 -93.9522 -0.571911 3.35852 74.2811 10.348 9.16641 9.2432 -8.80788 -2.39075 175.157 -12.2128 94.9691 -34.7179 -35.113 -3.61035 69.0291 -7.13619 -3.73449 33.5584 -3.82756 7.33659 2.42078 7.76879 -90.6111 11.3798 4.53254 -1.65872 -0.285174 4.45514 -1.85686 -22.8795 4.82141 -0.217243 -2.8668 4.8214 -0.217251 93.6799 -23.9642 -101.041 31.0691 4.47159 0.517129 -16.9388 -6.97127 -70.2406 -63.7524 12.8855 -25.9502 -82.6969 -49.2869 89.6791 -16.8145 -14.043 88.2377 73.4738 -21.9016 -98.7139 67.6731 -21.492 -34.588 13.4464 -3.25312 -1.14494 -10.3782 -2.73129 -1.22754 
82.106 98.9747 63.2737 -104.973 55.942 -78.0917 -172.115 34.5309 87.8242 -58.4333 -3.01956 -0.821913 72.665 8.74079 3.53561 15.0696 -8.22106 1.54646 166.339 -24.1327 77.6441 -28.4449 -31.8184 -7.18381 63.5593 -2.46004 -3.13676 21.2751 0.911886 6.5204 4.3529 7.87851 -89.3181 11.144 8.98168 0.484264 -0.495601 8.99417 0.0852354 -23.2592 8.41822 3.18038 -3.24656 8.4182 3.18037 95.6123 -4.76102 -105.353 26.7408 14.5722 24.7443 -19.6558 -0.0100625 -90.2124 -65.3938 15.8082 -29.7384 -81.9911 -35.3397 89.3956 70.4623 -82.6483 -170.059 163.556 -18.5051 -49.1805 62.3864 -36.1428 -58.1517 15.678 -12.0057 -2.02453 -14.3521 -10.162 -8.88229 
65.0684 99.5229 48.1141 -106.288 58.6449 -76.1376 -175.59 19.0428 90.7825 -8.15448 -0.775703 -0.420852 61.6088 6.58033 -0.45794 19.923 -7.09688 4.16367 158.29 -28.9536 67.9314 -29.9485 -4.74894 -6.11971 72.4598 -6.7741 -3.67973 18.8789 1.8367 6.22141 4.93701 7.63931 -89.2871 11.6184 10.155 0.368447 -0.0123896 10.1613 -0.0835867 -22.8423 9.5703 3.43174 -2.82968 9.57032 3.43174 97.4535 3.47243 -103.329 22.9878 24.9453 32.2728 -32.5396 3.24971 -98.9515 -50.4808 16.6523 -40.095 -80.5802 -23.9362 90.9988 -8.57938 -29.8947 108.58 80.5152 -27.9873 -96.9917 59.0986 -29.8208 -52.4999 8.36279 -12.524 -2.04808 -9.71728 -11.2023 -9.10975 
48.5674 98.1631 33.9837 -111.332 56.5819 -66.1734 -176.327 18.026 96.0169 -9.25686 12.0078 1.02906 62.2617 3.60152 0.144756 13.7987 -12.1459 5.98575 160.06 -29.4855 69.811 -51.6889 8.08863 -6.97881 75.0724 -8.81572 -6.78731 13.6777 4.07462 5.70504 4.34063 7.18918 -90.1678 12.582 8.54262 -1.34212 0.938045 8.4752 -1.71942 -21.8211 8.54821 1.30669 -1.80848 8.54823 1.30669 97.3091 1.55319 -102.71 24.9997 17.3587 52.7825 -34.0334 9.84533 -109.124 -48.167 20.3261 -49.3355 -79.6435 -24.7116 93.0143 -27.1857 9.72345 82.6405 107.104 -34.8993 -83.0757 -38.551 31.7745 -90.6933 3.57611 -9.14667 -3.85703 -10.5082 -7.73419 -8.03951 
33.5727 94.3068 21.4847 -114.595 51.4584 -64.9035 -175.603 18.6705 93.8865 -29.2853 19.983 0.661436 50.3596 -5.46245 -10.8456 28.6535 -5.64608 13.7511 163.984 -22.1201 71.3689 -84.8054 -5.29447 -7.22312 72.3806 -8.83561 -6.81527 15.9546 3.15418 5.88504 2.89671 7.58078 -90.3475 11.7454 5.59816 -1.28433 0.0854379 5.53622 -1.53016 -22.5452 5.72435 0.463008 -2.53254 5.72433 0.463003 95.2779 -11.8814 -102.423 24.938 12.8314 71.6695 -44.8147 12.485 -108.029 -44.725 21.2673 -55.1263 -79.3191 -40.0285 94.6796 -10.1227 -30.972 108.232 70.0931 -27.6701 -101.835 72.2301 -24.8599 -35.5228 6.48168 -5.35821 -4.03954 -8.40916 -4.17483 -4.43751 
21.8531 92.7386 10.5656 -115.973 49.0243 -74.0509 -173.374 14.7484 82.8556 -47.3312 18.5298 -2.44745 66.9425 2.6828 -13.4936 33.9115 -8.35208 22.5605 173.646 -2.4547 71.6724 -109.033 -9.97441 -5.67276 69.2897 -8.43618 -7.64709 17.7923 1.4028 8.31973 1.36487 8.40067 -89.0181 10.0658 3.16739 1.70472 -1.60183 3.23935 1.56358 -24.1515 2.50846 2.57793 -4.13882 2.50847 2.57793 95.5407 -24.6467 -96.8818 40.9437 6.86108 48.4473 -42.664 -12.6574 -75.3329 -50.2558 15.7073 -37.8707 -84.2821 -58.6644 88.2745 -17.0916 -29.0306 53.448 77.9134 -13.4289 -95.1794 56.8277 -20.3494 -39.1048 13.3069 -1.78659 -6.50915 -8.5362 0.0226369 -1.64298 
11.0831 93.7343 0.534436 -115.846 51.9004 -72.4148 -171.171 2.55408 84.1485 -44.1324 18.351 -3.69203 81.8891 17.4861 4.34678 12.8379 -7.66089 -1.16353 -175.026 21.0409 83.4068 -107.377 -0.713583 -5.22796 68.9372 -8.45447 -8.99607 13.4309 2.82232 8.70283 0.210615 8.03092 -88.961 10.7999 0.898973 1.98279 -0.872144 0.985357 1.94133 -23.3955 0.261662 2.16122 -3.3829 0.261654 2.16122 95.3584 -28.313 -96.3829 44.3864 11.5047 13.6475 -5.91374 -49.884 -5.8494 -50.5119 16.1963 -39.1593 -85.7505 -56.733 86.0111 -19.6777 -19.4281 20.2224 77.886 -7.93225 -93.763 53.0825 -20.7461 -42.6227 9.08698 5.61241 -5.38431 -9.53173 6.80032 -1.57711 
